<?xml version="1.0" encoding="UTF-8" standalone="no"?>
<!DOCTYPE svg PUBLIC "-//W3C//DTD SVG 1.1//EN" "http://www.w3.org/Graphics/SVG/1.1/DTD/svg11.dtd">
<svg width="100%" height="100%" viewBox="0 0 2560 1440" version="1.1" xmlns="http://www.w3.org/2000/svg" xmlns:xlink="http://www.w3.org/1999/xlink" xml:space="preserve" xmlns:serif="http://www.serif.com/" style="fill-rule:evenodd;clip-rule:evenodd;stroke-linejoin:round;stroke-miterlimit:2;">
    <rect x="0" y="0" width="2560" height="1440" style="fill:rgb(19,19,19);"/>
    <g id="blob" transform="matrix(4.16667,0,0,4.16667,51.1576,1440)">
        <g transform="matrix(1,0,0,1,-100,-100)">
            <g transform="matrix(1,0,0,1,100,100)">
                <path d="M12.7,-2.6C19.1,3.9 29,13.1 27.4,19C25.9,24.9 12.9,27.4 0.3,27.2C-12.3,27 -24.6,24.2 -30.1,16C-35.6,7.9 -34.3,-5.6 -28.2,-11.9C-22,-18.2 -11,-17.4 -4,-15.1C3.1,-12.8 6.2,-9.1 12.7,-2.6Z" style="fill:rgb(21,21,21);fill-rule:nonzero;"/>
            </g>
        </g>
    </g>
    <g id="blob1" serif:id="blob" transform="matrix(11.0475,0,0,6.77753,1631.15,1531.77)">
        <g transform="matrix(1,0,0,1,-100,-100)">
            <g transform="matrix(1,0,0,1,100,100)">
                <path d="M12.7,-2.6C19.1,3.9 29,13.1 27.4,19C25.9,24.9 12.9,27.4 0.3,27.2C-12.3,27 -24.6,24.2 -30.1,16C-35.6,7.9 -34.3,-5.6 -28.2,-11.9C-22,-18.2 -11,-17.4 -4,-15.1C3.1,-12.8 6.2,-9.1 12.7,-2.6Z" style="fill:rgb(21,21,21);fill-rule:nonzero;"/>
            </g>
        </g>
    </g>
    <g id="blob2" serif:id="blob" transform="matrix(9.24045,0,0,5.54814,2735.9,1489.07)">
        <g transform="matrix(1,0,0,1,-100,-100)">
            <g transform="matrix(1,0,0,1,100,100)">
                <path d="M12.7,-2.6C19.1,3.9 29,13.1 27.4,19C25.9,24.9 12.9,27.4 0.3,27.2C-12.3,27 -24.6,24.2 -30.1,16C-35.6,7.9 -34.3,-5.6 -28.2,-11.9C-22,-18.2 -11,-17.4 -4,-15.1C3.1,-12.8 6.2,-9.1 12.7,-2.6Z" style="fill:rgb(21,21,21);fill-rule:nonzero;"/>
            </g>
        </g>
    </g>
    <g id="blob3" serif:id="blob" transform="matrix(4.16667,0,0,8.77721,2633.26,673.155)">
        <g transform="matrix(1,0,0,1,-100,-100)">
            <g transform="matrix(1,0,0,1,100,100)">
                <path d="M12.7,-2.6C19.1,3.9 29,13.1 27.4,19C25.9,24.9 12.9,27.4 0.3,27.2C-12.3,27 -24.6,24.2 -30.1,16C-35.6,7.9 -34.3,-5.6 -28.2,-11.9C-22,-18.2 -11,-17.4 -4,-15.1C3.1,-12.8 6.2,-9.1 12.7,-2.6Z" style="fill:rgb(21,21,21);fill-rule:nonzero;"/>
            </g>
        </g>
    </g>
    <g id="wave" transform="matrix(2.62406,-3.23657,3.23657,2.62406,2216.59,1023.56)">
        <g transform="matrix(1,0,0,1,-720,-160)">
            <path d="M0,192L48,213.3C96,235 192,277 288,266.7C384,256 480,192 576,160C672,128 768,128 864,144C960,160 1056,192 1152,186.7C1248,181 1344,139 1392,117.3L1440,96L1440,320L0,320L0,192Z" style="fill:rgb(0,139,248);fill-rule:nonzero;"/>
        </g>
    </g>
</svg>
