<?xml version="1.0" encoding="UTF-8" standalone="no"?>
<!DOCTYPE svg PUBLIC "-//W3C//DTD SVG 1.1//EN" "http://www.w3.org/Graphics/SVG/1.1/DTD/svg11.dtd">
<svg width="100%" height="100%" viewBox="0 0 2560 1440" version="1.1" xmlns="http://www.w3.org/2000/svg" xmlns:xlink="http://www.w3.org/1999/xlink" xml:space="preserve" xmlns:serif="http://www.serif.com/" style="fill-rule:evenodd;clip-rule:evenodd;stroke-linejoin:round;stroke-miterlimit:2;">
    <rect x="0" y="0" width="2560" height="1440" style="fill:url(#_Linear1);"/>
    <g id="wave.svg" transform="matrix(4.16667,0,0,2.57103,2184.71,1229.56)">
        <g transform="matrix(1,0,0,1,-720,-160)">
            <path d="M0,128L34.3,117.3C68.6,107 137,85 206,74.7C274.3,64 343,64 411,85.3C480,107 549,149 617,170.7C685.7,192 754,192 823,186.7C891.4,181 960,171 1029,165.3C1097.1,160 1166,160 1234,144C1302.9,128 1371,96 1406,80L1440,64L1440,320L0,320L0,128Z" style="fill:rgb(0,139,248);fill-rule:nonzero;"/>
        </g>
    </g>
    <defs>
        <linearGradient id="_Linear1" x1="0" y1="0" x2="1" y2="0" gradientUnits="userSpaceOnUse" gradientTransform="matrix(2560,0,0,1440,0,720)"><stop offset="0" style="stop-color:rgb(19,19,19);stop-opacity:1"/><stop offset="0.46" style="stop-color:rgb(12,12,12);stop-opacity:1"/><stop offset="1" style="stop-color:rgb(10,10,10);stop-opacity:1"/><stop offset="1" style="stop-color:black;stop-opacity:1"/></linearGradient>
    </defs>
</svg>
